<svg width="451" height="101" viewBox="0 0 451 101" fill="none" xmlns="http://www.w3.org/2000/svg">
<path d="M27.4915 27.3318V29.1407L32.085 34.2893V69.3549L25.8907 71.0943V73.1119H42.5248V71.0943L37.3049 69.7028L35.9825 68.033V38.742L65.1444 73.4598H67.7195V31.715L73.9138 29.9061V27.6797H57.0013V30.1843L62.3604 31.5063L63.6828 33.1065V60.8668H63.3348L35.0082 27.3318H27.4915Z" fill="white"/>
<path d="M89.9911 73.8771C81.7785 73.8771 73.8442 68.5894 73.8442 57.3183C73.8442 46.1168 82.1961 40.4812 89.9911 40.4812C98.0646 40.4812 106.277 45.5602 106.277 56.7617C106.277 67.5458 97.5774 73.8771 89.9911 73.8771ZM99.8741 57.7357C99.8741 50.0825 95.6982 43.5425 89.0863 43.5425C83.1705 43.5425 80.2473 48.691 80.2473 56.3442C80.2473 63.9975 83.936 70.7462 90.8959 70.7462C96.8118 70.8158 99.8741 65.4585 99.8741 57.7357Z" fill="white"/>
<path d="M189.169 54.4659C189.169 46.8127 184.854 45.2821 179.843 45.2821C175.598 45.2821 172.814 48.4129 172.814 48.4129V53.4919V68.1722L174.136 69.842L178.59 71.3726V73.112H162.583V71.3726L167.107 69.6332V36.5156C167.107 30.5322 165.575 28.8624 162.304 28.8624V27.2622L172.466 23.853H173.162C173.162 23.853 172.814 30.9497 172.814 36.2373V45.7691C172.814 45.7691 179.426 40.4814 183.949 40.4814C189.587 40.4814 194.807 42.8469 194.807 51.1263V68.1722L196.129 69.842L200.584 71.3726V73.112H184.576V71.3726L188.961 69.7028L189.169 54.4659Z" fill="white"/>
<path d="M253.966 55.5093C253.966 65.0411 259.395 69.0069 265.589 69.0069C269.417 69.0069 274.01 67.4066 274.01 67.4066L274.706 68.7285C273.036 70.3983 268.442 73.8771 262.666 73.8771C254.871 73.8771 247.841 68.0328 247.841 57.3183C247.841 47.5778 254.592 40.4812 262.944 40.4812C269.486 40.4812 274.567 44.3774 274.567 51.8219C274.567 53.77 274.219 55.4398 274.219 55.4398H253.966V55.5093ZM264.058 52.8655C267.329 52.7264 268.512 52.1002 268.512 48.7606C268.512 45.908 266.424 43.6816 262.039 43.6816C257.446 43.6816 253.966 47.717 253.966 53.2134L264.058 52.8655Z" fill="white"/>
<path d="M282.154 72.6246C281.667 72.4159 280.414 71.7201 280.344 70.2591L279.927 63.7191H282.919C283.755 68.1718 286.747 71.094 290.645 71.094C294.612 71.094 296.213 69.0067 296.213 66.2933C296.213 63.6495 294.055 62.3276 291.48 60.9361L288 59.1272C282.989 56.5529 280.483 54.5352 280.483 49.5955C280.483 43.4033 284.938 40.4812 291.898 40.4812C296.769 40.4812 300.528 42.3597 300.528 42.3597L299.623 50.3608H296.839C296.839 45.3514 294.751 43.4729 290.575 43.4729C287.791 43.4729 285.147 44.5861 285.147 47.2995C285.147 49.5259 286.051 50.4304 291.48 53.2829L294.542 54.8831C300.18 57.7357 301.781 60.1708 301.781 64.8323C301.781 70.4678 296.143 73.8074 290.645 73.8074C287.234 73.877 284.103 73.4595 282.154 72.6246Z" fill="white"/>
<path d="M336.162 55.5093C336.162 65.0411 341.59 69.0069 347.785 69.0069C351.613 69.0069 356.206 67.4066 356.206 67.4066L356.902 68.7285C355.232 70.3983 350.638 73.8771 344.862 73.8771C337.066 73.8771 330.037 68.0328 330.037 57.3183C330.037 47.5778 336.788 40.4812 345.14 40.4812C351.682 40.4812 356.763 44.3774 356.763 51.8219C356.763 53.77 356.415 55.4398 356.415 55.4398H336.162V55.5093ZM346.254 52.8655C349.525 52.7264 350.708 52.1002 350.708 48.7606C350.708 45.908 348.62 43.6816 344.235 43.6816C339.642 43.6816 336.162 47.717 336.162 53.2134L346.254 52.8655Z" fill="white"/>
<path d="M420.655 69.8419L419.333 68.1721L419.402 50.7785C419.402 42.7774 414.183 40.4814 408.824 40.4814C404.3 40.4814 397.897 45.7691 397.897 45.7691C397.897 42.9165 398.036 40.2727 398.036 40.2727H397.479L387.457 43.8906V45.6299C391.285 45.6299 392.329 49.0391 392.329 55.2312V69.6332L387.805 71.3725V73.1815H403.604L403.743 71.4421L399.288 69.9115L397.966 68.2417V48.5521C397.966 48.5521 400.402 45.3516 404.717 45.3516C409.172 45.3516 413.765 46.9519 413.765 54.5355L413.556 69.7723L409.172 71.4421V73.251H424.97L425.11 71.5117L420.655 69.8419Z" fill="white"/>
<path d="M230.094 73.4597L222.717 53.0743L214.295 73.4597H211.442L203.159 48.2736C201.976 45.1428 201.35 43.2643 199.123 43.2643V41.3162H212.694V43.2643L208.588 44.5862L214.782 65.4586L220.211 52.4481L221.464 49.1085L219.585 43.8209L217.218 43.2643V41.3162H230.303V43.4034L226.197 44.6557L233.156 65.5281L240.395 44.7949L235.732 43.1251V41.3162H248.05V43.2643C245.267 43.6121 243.875 44.3775 241.647 50.013L233.296 73.4597H230.094Z" fill="white"/>
<path d="M158.755 68.3807C158.755 68.3807 156.806 69.6331 153.953 69.6331C150.89 69.6331 148.037 67.8937 148.106 63.6497L148.385 45.6995H158.546H158.616L158.755 44.5863L159.451 38.9507L158.128 38.742L157.154 40.8988L156.597 41.3858L148.524 41.7337H148.454V33.4543L144.487 34.1501L142.747 41.8729L137.11 42.4295V45.0733C140.172 45.0733 142.747 45.3516 142.747 48.2737C142.747 51.1958 142.469 60.5188 142.469 64.2063C142.469 71.2333 145.113 73.8076 149.637 73.8076C153.465 73.8076 156.667 72.2073 159.52 69.9114L158.755 68.3807Z" fill="white"/>
<path d="M326.905 68.3807C326.905 68.3807 324.957 69.6331 322.103 69.6331C319.041 69.6331 316.187 67.8937 316.257 63.6497L316.535 45.6995H326.696L326.836 44.5863L327.532 38.9507L326.209 38.742L325.235 40.8988L324.678 41.3858L316.605 41.7337V33.4543L312.638 34.1501L310.898 41.8729L305.26 42.4295V45.0733C308.322 45.0733 310.898 45.3516 310.898 48.2737C310.898 51.1958 310.619 60.5188 310.619 64.2063C310.619 71.2333 313.264 73.8076 317.788 73.8076C321.616 73.8076 324.817 72.2073 327.671 69.9114L326.905 68.3807Z" fill="white"/>
<path d="M133.212 40.9685C133.143 40.9685 132.029 40.551 129.802 40.551C125 40.551 119.989 48.1347 119.989 48.1347C119.989 43.9602 120.128 40.4119 120.128 40.4119H119.571L109.758 44.0297V45.63C113.446 45.63 114.629 48.9696 114.629 54.6747V69.6332L110.106 71.3726V73.1815H125.904V71.4422L121.45 69.9115L120.128 68.2417V53.4919C120.128 48.9696 123.677 46.3953 127.575 46.3953C128.34 46.3953 129.176 46.604 129.872 46.8127L130.916 48.413L132.238 48.5521L133.212 40.9685Z" fill="white"/>
<path d="M384.324 40.9685C384.254 40.9685 383.141 40.551 380.914 40.551C376.111 40.551 371.1 48.1347 371.1 48.1347C371.1 43.9602 371.239 40.4119 371.239 40.4119H370.683L360.869 44.0297V45.63C364.558 45.63 365.741 48.9696 365.741 54.6747V69.6332L361.217 71.3726V73.1815H377.016V71.4422L372.562 69.9115L371.239 68.2417V53.4919C371.239 48.9696 374.789 46.3953 378.686 46.3953C379.452 46.3953 380.287 46.604 380.983 46.8127L382.027 48.413L383.35 48.5521L384.324 40.9685Z" fill="white"/>
</svg>
