<svg width="50" height="38" viewBox="0 0 50 38" fill="none" xmlns="http://www.w3.org/2000/svg">
<path d="M7.8125 0.25C5.22367 0.25 3.125 2.34866 3.125 4.9375V31.5H46.875V4.9375C46.875 2.34867 44.7763 0.25 42.1875 0.25H7.8125Z" fill="#342F2E"/>
<path d="M0 33.0625H50C50 35.6513 47.9013 37.75 45.3125 37.75H4.6875C2.09867 37.75 0 35.6513 0 33.0625Z" fill="#342F2E"/>
<path d="M37.923 13.7019C38.2923 13.3327 38.2621 12.7195 37.8396 12.4126C34.2337 9.7942 29.7971 8.25 24.9999 8.25C20.2027 8.25 15.7662 9.7942 12.1603 12.4126C11.7377 12.7195 11.7076 13.3327 12.0769 13.7019C12.3893 14.0144 12.8872 14.0458 13.2457 13.7875C16.5526 11.4041 20.6123 10 24.9999 10C29.3875 10 33.4472 11.4041 36.7541 13.7875C37.1126 14.0458 37.6105 14.0144 37.923 13.7019Z" fill="white"/>
<path d="M34.1506 17.4743C34.5288 17.0961 34.4894 16.4621 34.0408 16.1708C31.4384 14.4813 28.3338 13.5 24.9999 13.5C21.6661 13.5 18.5614 14.4813 15.9591 16.1708C15.5105 16.4621 15.471 17.0961 15.8492 17.4743C16.1514 17.7765 16.6309 17.8185 16.9908 17.5881C19.3028 16.108 22.0511 15.25 24.9999 15.25C27.9487 15.25 30.6971 16.108 33.009 17.5881C33.3689 17.8185 33.8484 17.7765 34.1506 17.4743Z" fill="white"/>
<path d="M30.3306 21.2944C30.7263 20.8986 30.6539 20.2366 30.1552 19.9826C28.6076 19.1944 26.8557 18.75 24.9999 18.75C23.1442 18.75 21.3922 19.1944 19.8446 19.9826C19.3459 20.2366 19.2735 20.8986 19.6693 21.2944L19.6956 21.3207C19.9763 21.6013 20.4089 21.6541 20.7652 21.4792C22.0431 20.8521 23.4804 20.5 24.9999 20.5C26.5194 20.5 27.9567 20.8521 29.2346 21.4792C29.5909 21.6541 30.0236 21.6013 30.3043 21.3207L30.3306 21.2944Z" fill="white"/>
<path d="M26.8561 24.7688C27.1978 24.4271 27.2013 23.8613 26.7859 23.6143C26.263 23.3035 25.6523 23.125 24.9999 23.125C24.3475 23.125 23.7368 23.3035 23.214 23.6143C22.7986 23.8613 22.8021 24.4271 23.1438 24.7688L24.3812 26.0063C24.7229 26.348 25.2769 26.348 25.6186 26.0063L26.8561 24.7688Z" fill="white"/>
</svg>
