<svg width="1445" height="321" viewBox="0 0 1445 321" fill="none" xmlns="http://www.w3.org/2000/svg">
<path d="M88.0826 86.2686V92.0644L102.8 108.56V220.91L82.9537 226.483V232.948H136.249V226.483L119.525 222.025L115.288 216.675V122.827L208.722 234.062H216.973V100.312L236.819 94.5165V87.3831H182.632V95.4081L199.802 99.6436L204.039 104.771V193.714H202.924L112.166 86.2686H88.0826Z" fill="#4E2A84"/>
<path d="M288.331 235.4C262.018 235.4 236.596 218.458 236.596 182.346C236.596 146.456 263.356 128.4 288.331 128.4C314.198 128.4 340.512 144.673 340.512 180.562C340.512 215.114 312.637 235.4 288.331 235.4ZM319.996 183.683C319.996 159.162 306.617 138.208 285.432 138.208C266.478 138.208 257.112 154.704 257.112 179.225C257.112 203.746 268.931 225.369 291.23 225.369C310.184 225.592 319.996 208.427 319.996 183.683Z" fill="#4E2A84"/>
<path d="M606.097 173.206C606.097 148.685 592.272 143.781 576.216 143.781C562.613 143.781 553.694 153.812 553.694 153.812V170.085V217.121L557.931 222.471L572.202 227.375V232.948H520.914V227.375L535.408 221.802V115.694C535.408 96.5228 530.502 91.1728 520.022 91.1728V86.0457L552.579 75.1228H554.809C554.809 75.1228 553.694 97.8603 553.694 114.802V145.342C553.694 145.342 574.878 128.4 589.373 128.4C607.435 128.4 624.16 135.979 624.16 162.506V217.121L628.397 222.471L642.668 227.375V232.948H591.38V227.375L605.428 222.025L606.097 173.206Z" fill="#4E2A84"/>
<path d="M813.704 176.55C813.704 207.089 831.098 219.796 850.944 219.796C863.209 219.796 877.927 214.669 877.927 214.669L880.157 218.904C874.805 224.254 860.087 235.4 841.579 235.4C816.603 235.4 794.081 216.675 794.081 182.346C794.081 151.137 815.711 128.4 842.471 128.4C863.432 128.4 879.711 140.883 879.711 164.735C879.711 170.977 878.596 176.327 878.596 176.327H813.704V176.55ZM846.039 168.079C856.519 167.633 860.31 165.627 860.31 154.927C860.31 145.787 853.62 138.654 839.572 138.654C824.854 138.654 813.704 151.583 813.704 169.194L846.039 168.079Z" fill="#4E2A84"/>
<path d="M904.017 231.387C902.456 230.719 898.442 228.489 898.219 223.808L896.881 202.854H906.47C909.146 217.121 918.735 226.483 931.222 226.483C943.933 226.483 949.062 219.796 949.062 211.102C949.062 202.631 942.149 198.396 933.898 193.937L922.748 188.142C906.693 179.894 898.665 173.429 898.665 157.602C898.665 137.762 912.937 128.4 935.236 128.4C950.846 128.4 962.887 134.419 962.887 134.419L959.988 160.054H951.069C951.069 144.004 944.379 137.985 930.999 137.985C922.079 137.985 913.606 141.552 913.606 150.246C913.606 157.379 916.505 160.277 933.898 169.417L943.71 174.544C961.772 183.683 966.901 191.485 966.901 206.421C966.901 224.477 948.839 235.177 931.222 235.177C920.296 235.4 910.261 234.062 904.017 231.387Z" fill="#4E2A84"/>
<path d="M1077.06 176.55C1077.06 207.089 1094.45 219.796 1114.3 219.796C1126.56 219.796 1141.28 214.669 1141.28 214.669L1143.51 218.904C1138.16 224.254 1123.44 235.4 1104.93 235.4C1079.96 235.4 1057.44 216.675 1057.44 182.346C1057.44 151.137 1079.07 128.4 1105.83 128.4C1126.79 128.4 1143.07 140.883 1143.07 164.735C1143.07 170.977 1141.95 176.327 1141.95 176.327H1077.06V176.55ZM1109.39 168.079C1119.88 167.633 1123.67 165.627 1123.67 154.927C1123.67 145.787 1116.98 138.654 1102.93 138.654C1088.21 138.654 1077.06 151.583 1077.06 169.194L1109.39 168.079Z" fill="#4E2A84"/>
<path d="M1347.77 222.471L1343.54 217.121L1343.76 161.392C1343.76 135.756 1327.04 128.4 1309.87 128.4C1295.37 128.4 1274.86 145.342 1274.86 145.342C1274.86 136.202 1275.3 127.731 1275.3 127.731H1273.52L1241.41 139.323V144.896C1253.67 144.896 1257.02 155.819 1257.02 175.658V221.802L1242.52 227.375V233.171H1293.14L1293.59 227.598L1279.32 222.694L1275.08 217.344V154.258C1275.08 154.258 1282.88 144.004 1296.71 144.004C1310.98 144.004 1325.7 149.131 1325.7 173.429L1325.03 222.248L1310.98 227.598V233.394H1361.6L1362.05 227.821L1347.77 222.471Z" fill="#4E2A84"/>
<path d="M737.218 234.062L713.58 168.748L686.598 234.062H677.455L650.919 153.367C647.128 143.335 645.121 137.317 637.985 137.317V131.075H681.469V137.317L668.313 141.552L688.159 208.427L705.552 166.742L709.566 156.042L703.546 139.1L695.964 137.317V131.075H737.887V137.762L724.73 141.775L747.029 208.65L770.221 142.221L755.28 136.871V131.075H794.75V137.317C785.83 138.431 781.37 140.883 774.235 158.94L747.475 234.062H737.218Z" fill="#4E2A84"/>
<path d="M508.649 217.789C508.649 217.789 502.405 221.802 493.262 221.802C483.451 221.802 474.308 216.229 474.531 202.631L475.423 145.119H507.98H508.203L508.649 141.552L510.879 123.496L506.642 122.827L503.52 129.737L501.736 131.298L475.869 132.412H475.646V105.885L462.935 108.114L457.36 132.858L439.298 134.642V143.112C449.11 143.112 457.36 144.004 457.36 153.367C457.36 162.729 456.468 192.6 456.468 204.414C456.468 226.929 464.942 235.177 479.437 235.177C491.701 235.177 501.959 230.05 511.102 222.694L508.649 217.789Z" fill="#4E2A84"/>
<path d="M1047.4 217.789C1047.4 217.789 1041.16 221.802 1032.02 221.802C1022.2 221.802 1013.06 216.229 1013.28 202.631L1014.18 145.119H1046.73L1047.18 141.552L1049.41 123.496L1045.17 122.827L1042.05 129.737L1040.27 131.298L1014.4 132.412V105.885L1001.69 108.114L996.113 132.858L978.051 134.642V143.112C987.863 143.112 996.113 144.004 996.113 153.367C996.113 162.729 995.221 192.6 995.221 204.414C995.221 226.929 1003.7 235.177 1018.19 235.177C1030.45 235.177 1040.71 230.05 1049.85 222.694L1047.4 217.789Z" fill="#4E2A84"/>
<path d="M426.81 129.96C426.587 129.96 423.019 128.623 415.884 128.623C400.497 128.623 384.441 152.921 384.441 152.921C384.441 139.546 384.887 128.177 384.887 128.177H383.103L351.661 139.769V144.896C363.48 144.896 367.271 155.596 367.271 173.875V221.802L352.776 227.375V233.171H403.396V227.598L389.124 222.694L384.887 217.344V170.085C384.887 155.596 396.26 147.348 408.748 147.348C411.201 147.348 413.877 148.017 416.107 148.685L419.451 153.812L423.688 154.258L426.81 129.96Z" fill="#4E2A84"/>
<path d="M1231.37 129.96C1231.15 129.96 1227.58 128.623 1220.45 128.623C1205.06 128.623 1189 152.921 1189 152.921C1189 139.546 1189.45 128.177 1189.45 128.177H1187.67L1156.22 139.769V144.896C1168.04 144.896 1171.83 155.596 1171.83 173.875V221.802L1157.34 227.375V233.171H1207.96V227.598L1193.69 222.694L1189.45 217.344V170.085C1189.45 155.596 1200.82 147.348 1213.31 147.348C1215.76 147.348 1218.44 148.017 1220.67 148.685L1224.01 153.812L1228.25 154.258L1231.37 129.96Z" fill="#4E2A84"/>
</svg>
